<svg id="Layer_1" data-name="Layer 1" xmlns="http://www.w3.org/2000/svg" viewBox="0 0 284.37 246.27"><defs><style>.cls-1{fill:#fff;}</style></defs><title>web-icon-white</title><path class="cls-1" d="M472.35,259.89a58.07,58.07,0,0,0-20.7-17.9,83.69,83.69,0,0,1,9,23.31,46.63,46.63,0,0,0,11.72-5.41" transform="translate(-283.2 -170.2)"/><path class="cls-1" d="M416,350.26q2.28,0.38,4.62.57V316.9A130.16,130.16,0,0,0,399.42,319c3.33,14.4,9.33,25.81,16.56,31.23" transform="translate(-283.2 -170.2)"/><path class="cls-1" d="M399.42,267.64a130.22,130.22,0,0,0,21.18,2.13V235.85c-1.56.13-3.1,0.31-4.62,0.56-7.22,5.42-13.23,16.83-16.56,31.23" transform="translate(-283.2 -170.2)"/><path class="cls-1" d="M396.58,293.34a119.14,119.14,0,0,0,1.12,16.29,140.86,140.86,0,0,1,22.91-2.28v-28A140.87,140.87,0,0,1,397.69,277a119.14,119.14,0,0,0-1.12,16.29" transform="translate(-283.2 -170.2)"/><path class="cls-1" d="M399.11,242a58.12,58.12,0,0,0-20.7,17.9,46.59,46.59,0,0,0,11.73,5.41,83.76,83.76,0,0,1,9-23.31" transform="translate(-283.2 -170.2)"/><path class="cls-1" d="M387,293.34a128.36,128.36,0,0,1,1.32-18.55,57.4,57.4,0,0,1-14.88-6.63,57.62,57.62,0,0,0,0,50.35,57.39,57.39,0,0,1,14.88-6.63A128.36,128.36,0,0,1,387,293.34" transform="translate(-283.2 -170.2)"/><path class="cls-1" d="M378.41,326.78a58.09,58.09,0,0,0,20.7,17.91,83.81,83.81,0,0,1-9-23.32,46.59,46.59,0,0,0-11.73,5.41" transform="translate(-283.2 -170.2)"/><path class="cls-1" d="M454.19,293.34A119.14,119.14,0,0,0,453.07,277a141,141,0,0,1-22.92,2.28v28a141,141,0,0,1,22.92,2.28,119.14,119.14,0,0,0,1.12-16.29" transform="translate(-283.2 -170.2)"/><path class="cls-1" d="M477.29,268.16a57.24,57.24,0,0,1-14.87,6.63,130.64,130.64,0,0,1,0,37.11,57,57,0,0,1,14.87,6.63,57.63,57.63,0,0,0,0-50.36" transform="translate(-283.2 -170.2)"/><path class="cls-1" d="M496.47,170.2H354.29L283.2,293.34l71.09,123.13H496.47l71.09-123.13ZM425.38,365.92A72.59,72.59,0,1,1,498,293.34a72.67,72.67,0,0,1-72.58,72.58" transform="translate(-283.2 -170.2)"/><path class="cls-1" d="M451.65,344.68a58.06,58.06,0,0,0,20.71-17.91,46.87,46.87,0,0,0-11.73-5.4,83.76,83.76,0,0,1-9,23.31" transform="translate(-283.2 -170.2)"/><path class="cls-1" d="M430.15,350.82c1.56-.13,3.1-0.31,4.62-0.57C442,344.84,448,333.43,451.35,319a129.62,129.62,0,0,0-21.2-2.13v33.92Z" transform="translate(-283.2 -170.2)"/><path class="cls-1" d="M434.78,236.41q-2.28-.38-4.62-0.57v33.92a129.54,129.54,0,0,0,21.19-2.13c-3.34-14.4-9.34-25.81-16.57-31.22" transform="translate(-283.2 -170.2)"/></svg>